# xmcd
#
# Track frame offsets:
#	150
#	23870
#	43780
#	65013
#	87856
#	103901
#	123849
#	136135
#	152254
#	173111
#
# Disc length: 2659 seconds
#
# Revision: 0
# Processed by: cddbd v1.4PL0 Copyright (c) Steve Scherf et al.
# Submitted via: EasyCDDAExtractor 5.0.5.1
#
DISCID=7b0a610a
DTITLE=Replete Bros. - Crossroads
DYEAR=2002
DGENRE=Country
TTITLE0=Cryin' since she's gone
TTITLE1=You're every song
TTITLE2=Break the law
TTITLE3=Be brave
TTITLE4=The perfect mistake
TTITLE5=Both changed (w/ Vicky Haritou)
TTITLE6=Livin' at 40%
TTITLE7=A new heart's beating
TTITLE8=If (I could stop the rain)
TTITLE9=Why we're not together
EXTD=
EXTT0=
EXTT1=
EXTT2=
EXTT3=
EXTT4=
EXTT5=
EXTT6=
EXTT7=
EXTT8=
EXTT9=
PLAYORDER=
